<svg xmlns="http://www.w3.org/2000/svg" xmlns:xlink="http://www.w3.org/1999/xlink" width="500" zoomAndPan="magnify" viewBox="0 0 375 374.999991" height="500" preserveAspectRatio="xMidYMid meet" version="1.0"><defs><g/><clipPath id="608c23c6d6"><path d="M 92 135 L 208.070312 135 L 208.070312 266.320312 L 92 266.320312 Z M 92 135 " clip-rule="nonzero"/></clipPath><clipPath id="cff9dd140e"><path d="M 73.820312 141 L 108 141 L 108 266 L 73.820312 266 Z M 73.820312 141 " clip-rule="nonzero"/></clipPath></defs><rect x="-37.5" width="450" fill="#ffffff" y="-37.499999" height="449.999989" fill-opacity="1"/><rect x="-37.5" width="450" fill="#ffffff" y="-37.499999" height="449.999989" fill-opacity="1"/><g clip-path="url(#608c23c6d6)"><path fill="#f0355e" d="M 208.28125 231.894531 C 200.660156 235.113281 193 238.214844 185.335938 241.292969 L 173.820312 245.855469 C 171.898438 246.609375 169.996094 247.425781 168.023438 248.019531 C 166.054688 248.628906 164.074219 249.207031 162.121094 249.863281 L 115.089844 265.140625 L 111.917969 266.167969 L 111.421875 262.871094 L 93.316406 143.105469 L 92.855469 140.070312 L 95.917969 139.863281 L 144.761719 136.5625 L 150.867188 136.140625 C 152.898438 135.960938 154.929688 135.746094 156.976562 135.800781 L 169.246094 135.8125 C 177.421875 135.832031 185.605469 135.921875 193.796875 136.082031 C 185.703125 137.339844 177.605469 138.53125 169.503906 139.652344 L 157.351562 141.3125 C 155.328125 141.640625 153.285156 141.699219 151.25 141.800781 L 145.144531 142.199219 L 96.300781 145.5 L 98.90625 142.257812 L 117.011719 262.027344 L 113.34375 259.761719 L 160.375 244.484375 C 162.339844 243.867188 164.28125 243.171875 166.230469 242.507812 C 168.179688 241.828125 170.195312 241.371094 172.191406 240.851562 L 184.195312 237.777344 C 192.203125 235.761719 200.222656 233.769531 208.28125 231.894531 " fill-opacity="1" fill-rule="nonzero"/></g><path fill="#f0355e" d="M 122.039062 162.164062 L 118.566406 139.1875 C 117.523438 132.289062 119.25 125.492188 123.425781 120.050781 C 127.605469 114.605469 133.738281 111.179688 140.683594 110.402344 C 154.910156 108.816406 168.234375 119.039062 170.375 133.1875 L 173.847656 156.164062 L 168.257812 157.007812 L 164.785156 134.03125 C 163.09375 122.847656 152.578125 114.761719 141.308594 116.019531 C 135.90625 116.625 131.144531 119.277344 127.910156 123.492188 C 124.675781 127.703125 123.34375 132.976562 124.152344 138.34375 L 127.628906 161.316406 L 122.039062 162.164062 " fill-opacity="1" fill-rule="nonzero"/><path fill="#f0355e" d="M 163.753906 157.398438 C 164.359375 161.40625 168.117188 164.292969 172.152344 163.84375 C 176.183594 163.394531 178.960938 159.777344 178.355469 155.769531 C 177.746094 151.761719 173.988281 148.878906 169.957031 149.328125 C 165.925781 149.777344 163.148438 153.390625 163.753906 157.398438 " fill-opacity="1" fill-rule="nonzero"/><path fill="#f0355e" d="M 117.53125 162.554688 C 118.136719 166.5625 121.898438 169.445312 125.929688 168.996094 C 129.960938 168.546875 132.738281 164.933594 132.132812 160.925781 C 131.527344 156.917969 127.765625 154.03125 123.734375 154.484375 C 119.703125 154.933594 116.925781 158.546875 117.53125 162.554688 " fill-opacity="1" fill-rule="nonzero"/><g clip-path="url(#cff9dd140e)"><path fill="#f0355e" d="M 88.136719 141.859375 C 88.386719 144.320312 88.585938 146.773438 88.746094 149.226562 C 88.933594 151.679688 89.042969 154.125 89.167969 156.574219 C 89.210938 157.796875 89.339844 159.027344 89.3125 160.242188 C 89.289062 160.847656 89.164062 161.445312 89.089844 162.050781 C 89.007812 162.652344 88.957031 163.253906 88.902344 163.859375 L 88.21875 171.101562 L 85.484375 200.082031 L 80.015625 258.035156 L 75.796875 255.316406 C 76.269531 255.054688 76.582031 254.90625 76.96875 254.726562 C 77.335938 254.554688 77.703125 254.394531 78.070312 254.246094 C 78.804688 253.941406 79.550781 253.675781 80.304688 253.433594 C 81.8125 252.96875 83.34375 252.570312 84.917969 252.289062 C 86.503906 252.0625 88.132812 252.203125 89.714844 252.386719 C 91.304688 252.597656 92.871094 252.964844 94.367188 253.484375 C 97.375 254.519531 100.050781 256.257812 102.210938 258.359375 C 104.382812 260.464844 106.066406 262.917969 107.371094 265.492188 C 105.425781 263.355469 103.230469 261.507812 100.878906 260.09375 C 98.511719 258.6875 95.945312 257.824219 93.382812 257.492188 C 92.097656 257.339844 90.808594 257.316406 89.535156 257.421875 C 88.261719 257.5 87.015625 257.816406 85.765625 258.011719 C 84.507812 258.148438 83.242188 258.414062 82.023438 258.820312 C 81.414062 259.011719 80.804688 259.230469 80.21875 259.472656 C 79.925781 259.59375 79.632812 259.71875 79.351562 259.851562 C 79.085938 259.972656 78.757812 260.136719 78.601562 260.222656 L 73.882812 262.824219 L 74.386719 257.503906 L 79.855469 199.550781 L 82.589844 170.570312 L 83.273438 163.328125 C 83.328125 162.722656 83.394531 162.121094 83.425781 161.515625 C 83.46875 160.910156 83.453125 160.300781 83.546875 159.699219 C 83.746094 158.5 84.101562 157.316406 84.371094 156.121094 C 84.953125 153.742188 85.519531 151.359375 86.164062 148.980469 C 86.777344 146.605469 87.433594 144.230469 88.136719 141.859375 " fill-opacity="1" fill-rule="nonzero"/></g><g fill="#100f0d" fill-opacity="1"><g transform="translate(121.59771, 210.340181)"><g><path d="M 4.59375 -3.15625 L 4.59375 -32.5625 C 4.59375 -33.445312 4.898438 -34.191406 5.515625 -34.796875 C 6.128906 -35.410156 6.875 -35.71875 7.75 -35.71875 L 20.609375 -35.71875 C 22.046875 -35.71875 23.46875 -35.546875 24.875 -35.203125 C 26.289062 -34.867188 27.550781 -34.34375 28.65625 -33.625 C 29.757812 -32.914062 30.648438 -31.984375 31.328125 -30.828125 C 32.015625 -29.671875 32.359375 -28.273438 32.359375 -26.640625 L 32.359375 -26.53125 C 32.359375 -25.476562 32.21875 -24.523438 31.9375 -23.671875 C 31.664062 -22.828125 31.289062 -22.082031 30.8125 -21.4375 C 30.34375 -20.789062 29.800781 -20.234375 29.1875 -19.765625 C 28.570312 -19.304688 27.925781 -18.910156 27.25 -18.578125 C 28.300781 -18.203125 29.257812 -17.765625 30.125 -17.265625 C 31 -16.773438 31.75 -16.191406 32.375 -15.515625 C 33.007812 -14.835938 33.492188 -14.035156 33.828125 -13.109375 C 34.171875 -12.191406 34.34375 -11.125 34.34375 -9.90625 L 34.34375 -9.796875 C 34.34375 -8.203125 34.023438 -6.789062 33.390625 -5.5625 C 32.765625 -4.332031 31.875 -3.3125 30.71875 -2.5 C 29.5625 -1.6875 28.175781 -1.066406 26.5625 -0.640625 C 24.945312 -0.210938 23.132812 0 21.125 0 L 7.75 0 C 6.875 0 6.128906 -0.304688 5.515625 -0.921875 C 4.898438 -1.535156 4.59375 -2.28125 4.59375 -3.15625 Z M 10.765625 -5.5625 L 21.171875 -5.5625 C 23.316406 -5.5625 25 -5.96875 26.21875 -6.78125 C 27.445312 -7.601562 28.0625 -8.832031 28.0625 -10.46875 L 28.0625 -10.5625 C 28.0625 -12.09375 27.457031 -13.273438 26.25 -14.109375 C 25.039062 -14.941406 23.195312 -15.359375 20.71875 -15.359375 L 10.765625 -15.359375 Z M 10.765625 -30.15625 L 10.765625 -20.671875 L 19.34375 -20.671875 C 21.382812 -20.671875 23.015625 -21.066406 24.234375 -21.859375 C 25.460938 -22.660156 26.078125 -23.878906 26.078125 -25.515625 L 26.078125 -25.625 C 26.078125 -27.050781 25.539062 -28.160156 24.46875 -28.953125 C 23.394531 -29.753906 21.835938 -30.15625 19.796875 -30.15625 Z M 10.765625 -30.15625 "/></g></g></g><g fill="#100f0d" fill-opacity="1"><g transform="translate(153.126394, 210.340181)"><g><path d="M 16.796875 -27.5 C 18.867188 -27.5 20.78125 -27.132812 22.53125 -26.40625 C 24.28125 -25.675781 25.789062 -24.671875 27.0625 -23.390625 C 28.34375 -22.117188 29.335938 -20.640625 30.046875 -18.953125 C 30.765625 -17.273438 31.125 -15.460938 31.125 -13.515625 L 31.125 -13.421875 C 31.125 -11.515625 30.757812 -9.707031 30.03125 -8 C 29.300781 -6.300781 28.296875 -4.816406 27.015625 -3.546875 C 25.742188 -2.273438 24.222656 -1.265625 22.453125 -0.515625 C 20.679688 0.234375 18.757812 0.609375 16.6875 0.609375 C 14.644531 0.609375 12.75 0.242188 11 -0.484375 C 9.25 -1.210938 7.734375 -2.207031 6.453125 -3.46875 C 5.179688 -4.726562 4.1875 -6.207031 3.46875 -7.90625 C 2.757812 -9.613281 2.40625 -11.414062 2.40625 -13.3125 L 2.40625 -13.421875 C 2.40625 -15.359375 2.769531 -17.175781 3.5 -18.875 C 4.226562 -20.582031 5.226562 -22.070312 6.5 -23.34375 C 7.78125 -24.625 9.296875 -25.632812 11.046875 -26.375 C 12.796875 -27.125 14.710938 -27.5 16.796875 -27.5 Z M 16.796875 -4.796875 C 18.046875 -4.796875 19.171875 -5.023438 20.171875 -5.484375 C 21.179688 -5.941406 22.039062 -6.550781 22.75 -7.3125 C 23.46875 -8.082031 24.015625 -8.984375 24.390625 -10.015625 C 24.765625 -11.054688 24.953125 -12.15625 24.953125 -13.3125 L 24.953125 -13.421875 C 24.953125 -14.609375 24.75 -15.726562 24.34375 -16.78125 C 23.9375 -17.84375 23.363281 -18.765625 22.625 -19.546875 C 21.894531 -20.328125 21.03125 -20.945312 20.03125 -21.40625 C 19.03125 -21.863281 17.914062 -22.09375 16.6875 -22.09375 C 15.457031 -22.09375 14.34375 -21.863281 13.34375 -21.40625 C 12.34375 -20.945312 11.484375 -20.332031 10.765625 -19.5625 C 10.054688 -18.800781 9.515625 -17.898438 9.140625 -16.859375 C 8.765625 -15.828125 8.578125 -14.710938 8.578125 -13.515625 L 8.578125 -13.421875 C 8.578125 -12.265625 8.78125 -11.15625 9.1875 -10.09375 C 9.59375 -9.039062 10.160156 -8.125 10.890625 -7.34375 C 11.628906 -6.5625 12.5 -5.941406 13.5 -5.484375 C 14.5 -5.023438 15.597656 -4.796875 16.796875 -4.796875 Z M 16.796875 -4.796875 "/></g></g></g><g fill="#100f0d" fill-opacity="1"><g transform="translate(181.338851, 210.340181)"><g><path d="M 3.875 -2.8125 L 3.875 -24.140625 C 3.875 -25.023438 4.160156 -25.765625 4.734375 -26.359375 C 5.316406 -26.953125 6.050781 -27.25 6.9375 -27.25 C 7.820312 -27.25 8.5625 -26.953125 9.15625 -26.359375 C 9.75 -25.765625 10.046875 -25.023438 10.046875 -24.140625 L 10.046875 -21.375 C 10.765625 -23.113281 11.734375 -24.535156 12.953125 -25.640625 C 14.179688 -26.742188 15.476562 -27.296875 16.84375 -27.296875 C 17.820312 -27.296875 18.578125 -27.003906 19.109375 -26.421875 C 19.640625 -25.847656 19.90625 -25.117188 19.90625 -24.234375 C 19.90625 -23.421875 19.664062 -22.757812 19.1875 -22.25 C 18.707031 -21.738281 18.128906 -21.414062 17.453125 -21.28125 C 15.203125 -20.875 13.40625 -19.816406 12.0625 -18.109375 C 10.71875 -16.410156 10.046875 -13.960938 10.046875 -10.765625 L 10.046875 -2.8125 C 10.046875 -1.957031 9.75 -1.234375 9.15625 -0.640625 C 8.5625 -0.046875 7.820312 0.25 6.9375 0.25 C 6.09375 0.25 5.367188 -0.0351562 4.765625 -0.609375 C 4.171875 -1.191406 3.875 -1.925781 3.875 -2.8125 Z M 3.875 -2.8125 "/></g></g></g><g fill="#100f0d" fill-opacity="1"><g transform="translate(197.102724, 210.340181)"><g><path d="M 16.4375 -27.5 C 18.570312 -27.5 20.390625 -27.1875 21.890625 -26.5625 C 23.390625 -25.9375 24.71875 -25.128906 25.875 -24.140625 C 26.070312 -23.960938 26.28125 -23.6875 26.5 -23.3125 C 26.726562 -22.945312 26.84375 -22.507812 26.84375 -22 C 26.84375 -21.21875 26.5625 -20.550781 26 -20 C 25.4375 -19.457031 24.765625 -19.1875 23.984375 -19.1875 C 23.234375 -19.1875 22.617188 -19.390625 22.140625 -19.796875 C 21.359375 -20.484375 20.507812 -21.035156 19.59375 -21.453125 C 18.675781 -21.878906 17.601562 -22.09375 16.375 -22.09375 C 15.257812 -22.09375 14.222656 -21.863281 13.265625 -21.40625 C 12.316406 -20.945312 11.492188 -20.332031 10.796875 -19.5625 C 10.097656 -18.800781 9.550781 -17.898438 9.15625 -16.859375 C 8.769531 -15.828125 8.578125 -14.710938 8.578125 -13.515625 L 8.578125 -13.421875 C 8.578125 -12.234375 8.769531 -11.109375 9.15625 -10.046875 C 9.550781 -8.992188 10.101562 -8.078125 10.8125 -7.296875 C 11.53125 -6.515625 12.378906 -5.898438 13.359375 -5.453125 C 14.347656 -5.015625 15.441406 -4.796875 16.640625 -4.796875 C 19.054688 -4.796875 21.0625 -5.597656 22.65625 -7.203125 C 22.820312 -7.367188 23.050781 -7.519531 23.34375 -7.65625 C 23.632812 -7.789062 23.96875 -7.859375 24.34375 -7.859375 C 25.09375 -7.859375 25.722656 -7.59375 26.234375 -7.0625 C 26.742188 -6.539062 27 -5.90625 27 -5.15625 C 27 -4.332031 26.707031 -3.6875 26.125 -3.21875 C 24.9375 -2.0625 23.566406 -1.132812 22.015625 -0.4375 C 20.472656 0.257812 18.578125 0.609375 16.328125 0.609375 C 14.316406 0.609375 12.460938 0.242188 10.765625 -0.484375 C 9.066406 -1.210938 7.59375 -2.207031 6.34375 -3.46875 C 5.101562 -4.726562 4.132812 -6.207031 3.4375 -7.90625 C 2.75 -9.613281 2.40625 -11.414062 2.40625 -13.3125 L 2.40625 -13.421875 C 2.40625 -15.328125 2.75 -17.140625 3.4375 -18.859375 C 4.132812 -20.578125 5.113281 -22.070312 6.375 -23.34375 C 7.632812 -24.625 9.113281 -25.632812 10.8125 -26.375 C 12.519531 -27.125 14.394531 -27.5 16.4375 -27.5 Z M 16.4375 -27.5 "/></g></g></g><g fill="#100f0d" fill-opacity="1"><g transform="translate(220.927567, 210.340181)"><g><path d="M 2.40625 -13.46875 C 2.40625 -15.40625 2.726562 -17.222656 3.375 -18.921875 C 4.019531 -20.628906 4.925781 -22.117188 6.09375 -23.390625 C 7.269531 -24.671875 8.65625 -25.675781 10.25 -26.40625 C 11.851562 -27.132812 13.625 -27.5 15.5625 -27.5 C 17.707031 -27.5 19.578125 -27.097656 21.171875 -26.296875 C 22.773438 -25.503906 24.113281 -24.46875 25.1875 -23.1875 C 26.257812 -21.914062 27.054688 -20.492188 27.578125 -18.921875 C 28.109375 -17.359375 28.375 -15.796875 28.375 -14.234375 C 28.375 -13.347656 28.082031 -12.632812 27.5 -12.09375 C 26.925781 -11.550781 26.25 -11.28125 25.46875 -11.28125 L 8.578125 -11.28125 C 8.910156 -9.03125 9.773438 -7.328125 11.171875 -6.171875 C 12.566406 -5.015625 14.285156 -4.4375 16.328125 -4.4375 C 17.617188 -4.4375 18.78125 -4.648438 19.8125 -5.078125 C 20.851562 -5.503906 21.816406 -6.070312 22.703125 -6.78125 C 22.941406 -6.957031 23.171875 -7.09375 23.390625 -7.1875 C 23.617188 -7.289062 23.921875 -7.34375 24.296875 -7.34375 C 24.972656 -7.34375 25.546875 -7.101562 26.015625 -6.625 C 26.492188 -6.15625 26.734375 -5.5625 26.734375 -4.84375 C 26.734375 -4.46875 26.65625 -4.109375 26.5 -3.765625 C 26.351562 -3.429688 26.160156 -3.160156 25.921875 -2.953125 C 24.703125 -1.867188 23.316406 -1.003906 21.765625 -0.359375 C 20.210938 0.285156 18.367188 0.609375 16.234375 0.609375 C 14.285156 0.609375 12.46875 0.269531 10.78125 -0.40625 C 9.101562 -1.082031 7.644531 -2.035156 6.40625 -3.265625 C 5.164062 -4.492188 4.1875 -5.960938 3.46875 -7.671875 C 2.757812 -9.390625 2.40625 -11.289062 2.40625 -13.375 Z M 8.515625 -15.359375 L 22.359375 -15.359375 C 22.253906 -16.347656 22.03125 -17.273438 21.6875 -18.140625 C 21.34375 -19.003906 20.878906 -19.75 20.296875 -20.375 C 19.722656 -21.007812 19.035156 -21.515625 18.234375 -21.890625 C 17.441406 -22.265625 16.535156 -22.453125 15.515625 -22.453125 C 13.578125 -22.453125 11.992188 -21.804688 10.765625 -20.515625 C 9.546875 -19.222656 8.796875 -17.503906 8.515625 -15.359375 Z M 8.515625 -15.359375 "/></g></g></g><g fill="#100f0d" fill-opacity="1"><g transform="translate(246.436035, 210.340181)"><g><path d="M 4.234375 -34.453125 C 4.234375 -35.296875 4.519531 -36.015625 5.09375 -36.609375 C 5.675781 -37.210938 6.410156 -37.515625 7.296875 -37.515625 C 8.179688 -37.515625 8.921875 -37.210938 9.515625 -36.609375 C 10.109375 -36.015625 10.40625 -35.296875 10.40625 -34.453125 L 10.40625 -2.8125 C 10.40625 -1.925781 10.109375 -1.191406 9.515625 -0.609375 C 8.921875 -0.0351562 8.179688 0.25 7.296875 0.25 C 6.441406 0.25 5.71875 -0.0351562 5.125 -0.609375 C 4.53125 -1.191406 4.234375 -1.925781 4.234375 -2.8125 Z M 4.234375 -34.453125 "/></g></g></g><g fill="#100f0d" fill-opacity="1"><g transform="translate(255.720528, 210.340181)"><g><path d="M 4.234375 -34.453125 C 4.234375 -35.296875 4.519531 -36.015625 5.09375 -36.609375 C 5.675781 -37.210938 6.410156 -37.515625 7.296875 -37.515625 C 8.179688 -37.515625 8.921875 -37.210938 9.515625 -36.609375 C 10.109375 -36.015625 10.40625 -35.296875 10.40625 -34.453125 L 10.40625 -2.8125 C 10.40625 -1.925781 10.109375 -1.191406 9.515625 -0.609375 C 8.921875 -0.0351562 8.179688 0.25 7.296875 0.25 C 6.441406 0.25 5.71875 -0.0351562 5.125 -0.609375 C 4.53125 -1.191406 4.234375 -1.925781 4.234375 -2.8125 Z M 4.234375 -34.453125 "/></g></g></g><g fill="#100f0d" fill-opacity="1"><g transform="translate(265.005021, 210.340181)"><g><path d="M 2.40625 -13.46875 C 2.40625 -15.40625 2.726562 -17.222656 3.375 -18.921875 C 4.019531 -20.628906 4.925781 -22.117188 6.09375 -23.390625 C 7.269531 -24.671875 8.65625 -25.675781 10.25 -26.40625 C 11.851562 -27.132812 13.625 -27.5 15.5625 -27.5 C 17.707031 -27.5 19.578125 -27.097656 21.171875 -26.296875 C 22.773438 -25.503906 24.113281 -24.46875 25.1875 -23.1875 C 26.257812 -21.914062 27.054688 -20.492188 27.578125 -18.921875 C 28.109375 -17.359375 28.375 -15.796875 28.375 -14.234375 C 28.375 -13.347656 28.082031 -12.632812 27.5 -12.09375 C 26.925781 -11.550781 26.25 -11.28125 25.46875 -11.28125 L 8.578125 -11.28125 C 8.910156 -9.03125 9.773438 -7.328125 11.171875 -6.171875 C 12.566406 -5.015625 14.285156 -4.4375 16.328125 -4.4375 C 17.617188 -4.4375 18.78125 -4.648438 19.8125 -5.078125 C 20.851562 -5.503906 21.816406 -6.070312 22.703125 -6.78125 C 22.941406 -6.957031 23.171875 -7.09375 23.390625 -7.1875 C 23.617188 -7.289062 23.921875 -7.34375 24.296875 -7.34375 C 24.972656 -7.34375 25.546875 -7.101562 26.015625 -6.625 C 26.492188 -6.15625 26.734375 -5.5625 26.734375 -4.84375 C 26.734375 -4.46875 26.65625 -4.109375 26.5 -3.765625 C 26.351562 -3.429688 26.160156 -3.160156 25.921875 -2.953125 C 24.703125 -1.867188 23.316406 -1.003906 21.765625 -0.359375 C 20.210938 0.285156 18.367188 0.609375 16.234375 0.609375 C 14.285156 0.609375 12.46875 0.269531 10.78125 -0.40625 C 9.101562 -1.082031 7.644531 -2.035156 6.40625 -3.265625 C 5.164062 -4.492188 4.1875 -5.960938 3.46875 -7.671875 C 2.757812 -9.390625 2.40625 -11.289062 2.40625 -13.375 Z M 8.515625 -15.359375 L 22.359375 -15.359375 C 22.253906 -16.347656 22.03125 -17.273438 21.6875 -18.140625 C 21.34375 -19.003906 20.878906 -19.75 20.296875 -20.375 C 19.722656 -21.007812 19.035156 -21.515625 18.234375 -21.890625 C 17.441406 -22.265625 16.535156 -22.453125 15.515625 -22.453125 C 13.578125 -22.453125 11.992188 -21.804688 10.765625 -20.515625 C 9.546875 -19.222656 8.796875 -17.503906 8.515625 -15.359375 Z M 8.515625 -15.359375 "/></g></g></g><g fill="#111b1e" fill-opacity="1"><g transform="translate(150.216523, 221.306593)"><g><path d="M 3.375 0.109375 C 5.15625 0.109375 6.40625 -1.109375 6.40625 -2.84375 C 6.40625 -4.578125 5.15625 -5.796875 3.375 -5.796875 C 1.59375 -5.796875 0.34375 -4.578125 0.34375 -2.84375 C 0.34375 -1.109375 1.59375 0.109375 3.375 0.109375 Z M 1.65625 -2.84375 C 1.65625 -3.859375 2.375 -4.5625 3.375 -4.5625 C 4.390625 -4.5625 5.078125 -3.859375 5.078125 -2.84375 C 5.078125 -1.8125 4.390625 -1.109375 3.375 -1.109375 C 2.375 -1.109375 1.65625 -1.8125 1.65625 -2.84375 Z M 1.65625 -2.84375 "/></g></g></g><g fill="#111b1e" fill-opacity="1"><g transform="translate(161.965839, 221.306593)"><g><path d="M 0.6875 0 L 1.96875 0 L 1.96875 -3.484375 L 4.46875 0 L 5.5625 0 L 5.5625 -5.671875 L 4.28125 -5.671875 L 4.28125 -2.21875 L 1.78125 -5.671875 L 0.6875 -5.671875 Z M 0.6875 0 "/></g></g></g><g fill="#111b1e" fill-opacity="1"><g transform="translate(173.204318, 221.306593)"><g><path d="M 0.6875 0 L 4.453125 0 L 4.453125 -1.203125 L 1.96875 -1.203125 L 1.96875 -5.671875 L 0.6875 -5.671875 Z M 0.6875 0 "/></g></g></g><g fill="#111b1e" fill-opacity="1"><g transform="translate(182.86973, 221.306593)"><g><path d="M 0.6875 0 L 1.96875 0 L 1.96875 -5.671875 L 0.6875 -5.671875 Z M 0.6875 0 "/></g></g></g><g fill="#111b1e" fill-opacity="1"><g transform="translate(190.516099, 221.306593)"><g><path d="M 0.6875 0 L 1.96875 0 L 1.96875 -3.484375 L 4.46875 0 L 5.5625 0 L 5.5625 -5.671875 L 4.28125 -5.671875 L 4.28125 -2.21875 L 1.78125 -5.671875 L 0.6875 -5.671875 Z M 0.6875 0 "/></g></g></g><g fill="#111b1e" fill-opacity="1"><g transform="translate(201.754577, 221.306593)"><g><path d="M 0.6875 0 L 4.5 0 L 4.5 -1.09375 L 1.96875 -1.09375 L 1.96875 -2.328125 L 4.1875 -2.328125 L 4.1875 -3.40625 L 1.96875 -3.40625 L 1.96875 -4.59375 L 4.40625 -4.59375 L 4.40625 -5.671875 L 0.6875 -5.671875 Z M 0.6875 0 "/></g></g></g><g fill="#111b1e" fill-opacity="1"><g transform="translate(211.663244, 221.306593)"><g/></g></g><g fill="#111b1e" fill-opacity="1"><g transform="translate(218.563624, 221.306593)"><g><path d="M 2.65625 0.109375 C 4 0.109375 4.828125 -0.53125 4.828125 -1.59375 C 4.828125 -2.5 4.234375 -3.03125 2.828125 -3.359375 C 1.96875 -3.5625 1.65625 -3.78125 1.65625 -4.140625 C 1.65625 -4.515625 2 -4.734375 2.53125 -4.734375 C 3.125 -4.734375 3.484375 -4.421875 3.484375 -3.921875 L 4.734375 -3.921875 C 4.734375 -5.0625 3.875 -5.796875 2.515625 -5.796875 C 1.21875 -5.796875 0.40625 -5.15625 0.40625 -4.109375 C 0.40625 -3.1875 1.03125 -2.640625 2.359375 -2.359375 C 3.15625 -2.1875 3.53125 -1.953125 3.53125 -1.546875 C 3.53125 -1.171875 3.1875 -0.953125 2.65625 -0.953125 C 2.03125 -0.953125 1.625 -1.265625 1.625 -1.8125 L 0.359375 -1.8125 C 0.359375 -0.625 1.234375 0.109375 2.65625 0.109375 Z M 2.65625 0.109375 "/></g></g></g><g fill="#111b1e" fill-opacity="1"><g transform="translate(228.756088, 221.306593)"><g><path d="M 2.046875 0 L 3.328125 0 L 3.328125 -4.46875 L 5.140625 -4.46875 L 5.140625 -5.671875 L 0.25 -5.671875 L 0.25 -4.46875 L 2.046875 -4.46875 Z M 2.046875 0 "/></g></g></g><g fill="#111b1e" fill-opacity="1"><g transform="translate(239.12695, 221.306593)"><g><path d="M 3.375 0.109375 C 5.15625 0.109375 6.40625 -1.109375 6.40625 -2.84375 C 6.40625 -4.578125 5.15625 -5.796875 3.375 -5.796875 C 1.59375 -5.796875 0.34375 -4.578125 0.34375 -2.84375 C 0.34375 -1.109375 1.59375 0.109375 3.375 0.109375 Z M 1.65625 -2.84375 C 1.65625 -3.859375 2.375 -4.5625 3.375 -4.5625 C 4.390625 -4.5625 5.078125 -3.859375 5.078125 -2.84375 C 5.078125 -1.8125 4.390625 -1.109375 3.375 -1.109375 C 2.375 -1.109375 1.65625 -1.8125 1.65625 -2.84375 Z M 1.65625 -2.84375 "/></g></g></g><g fill="#111b1e" fill-opacity="1"><g transform="translate(250.876264, 221.306593)"><g><path d="M 0.6875 0 L 1.96875 0 L 1.96875 -1.765625 L 2.828125 -1.765625 L 3.828125 0 L 5.328125 0 L 4.15625 -1.96875 C 4.828125 -2.265625 5.234375 -2.890625 5.234375 -3.71875 C 5.234375 -4.9375 4.40625 -5.671875 3.109375 -5.671875 L 0.6875 -5.671875 Z M 1.953125 -2.859375 L 1.953125 -4.578125 L 2.9375 -4.578125 C 3.5625 -4.578125 3.921875 -4.265625 3.921875 -3.71875 C 3.921875 -3.15625 3.5625 -2.859375 2.9375 -2.859375 Z M 1.953125 -2.859375 "/></g></g></g><g fill="#111b1e" fill-opacity="1"><g transform="translate(261.579574, 221.306593)"><g><path d="M 0.6875 0 L 4.5 0 L 4.5 -1.09375 L 1.96875 -1.09375 L 1.96875 -2.328125 L 4.1875 -2.328125 L 4.1875 -3.40625 L 1.96875 -3.40625 L 1.96875 -4.59375 L 4.40625 -4.59375 L 4.40625 -5.671875 L 0.6875 -5.671875 Z M 0.6875 0 "/></g></g></g></svg>